<?xml version="1.0" encoding="UTF-8"?>
<!-- Generator: Adobe Illustrator 27.2.0, SVG Export Plug-In . SVG Version: 6.00 Build 0)  -->
<svg xmlns="http://www.w3.org/2000/svg" xmlns:xlink="http://www.w3.org/1999/xlink" version="1.1" id="Capa_1" x="0px" y="0px" viewBox="0 0 512 512" style="enable-background:new 0 0 512 512;" xml:space="preserve" width="512" height="512">
<g>
	<g>
		<g>
			<path d="M287.89,234.17c8.63-8.35,14-20.04,14-32.97c0-25.32-20.59-45.92-45.89-45.92s-45.89,20.6-45.89,45.92     c0,12.93,5.37,24.62,14,32.97c-17.34,10.72-28.91,29.91-28.91,51.74c0,6.08,4.92,11,11,11h99.6c6.08,0,11-4.92,11-11     C316.8,264.08,305.23,244.89,287.89,234.17z M232.11,201.2c0-13.19,10.72-23.92,23.89-23.92s23.89,10.73,23.89,23.92     c0,13.18-10.72,23.91-23.89,23.91S232.11,214.38,232.11,201.2z M218.79,274.91c4.75-16.05,19.63-27.8,37.21-27.8     s32.46,11.75,37.21,27.8H218.79z"/>
		</g>
	</g>
	<g>
		<g>
			<path style="fill:#33CCCC;" d="M438.934,464.341h-46.263c-6.075,0-11-4.925-11-11s4.925-11,11-11h35.263V22H131.561v35.8     c0,6.075-4.925,11-11,11s-11-4.925-11-11V11c0-6.075,4.925-11,11-11h318.373c6.075,0,11,4.925,11,11v442.341     C449.934,459.417,445.009,464.341,438.934,464.341z"/>
		</g>
		<g>
			<path d="M391.439,512H73.066c-6.075,0-11-4.925-11-11V58.659c0-6.075,4.925-11,11-11h318.373c6.075,0,11,4.925,11,11V335     c0,6.075-4.925,11-11,11s-11-4.925-11-11V69.659H84.066V490h296.373v-96.604c0-6.075,4.925-4.108,11-4.108s11-1.968,11,4.108V501     C402.439,507.075,397.515,512,391.439,512z"/>
		</g>
	</g>
	<g>
		<path d="M337.857,422.98H120.561c-6.075,0-11-4.925-11-11s4.925-11,11-11h217.297c6.075,0,11,4.925,11,11    S343.933,422.98,337.857,422.98z"/>
	</g>
	<g>
		<path style="fill:#33CCCC;" d="M337.857,464.979H120.561c-6.075,0-11-4.925-11-11s4.925-11,11-11h217.297c6.075,0,11,4.925,11,11    S343.933,464.979,337.857,464.979z"/>
	</g>
	<g>
		<path style="fill:#33CCCC;" d="M425.86,354.4l-28.13-28.53c-2.05-2.09-4.86-3.27-7.79-3.28h-0.04c-2.92,0-5.71,1.16-7.78,3.22    l-6.63,6.63l-9.46-9.35c23.92-27.79,35.87-62.4,35.87-96.99c0-38.11-14.5-76.22-43.51-105.23    c-28.11-28.1-65.48-43.58-105.23-43.58c-39.74,0-77.11,15.48-105.22,43.58c-58.02,58.02-58.02,152.43,0,210.45    c28.11,28.1,65.48,43.58,105.22,43.58c36.14,0,70.31-12.8,97.35-36.24l9.43,9.33c0,0-6.631,6.631-6.65,6.65    c-4.157,4.157-4.153,11.428,0,15.56l31.66,31.66c3.85,4.07,9.71,6.39,16.56,6.55c0.24,0.01,0.48,0.01,0.72,0.01    c8.72,0,17.48-3.59,23.58-9.68c5.92-5.93,9.19-13.81,9.19-22.2C435,368.16,431.73,360.28,425.86,354.4z M163.5,315.76    c-49.44-49.44-49.44-129.89,0-179.33c23.95-23.95,55.79-37.14,89.66-37.14c16.94,0,33.36,3.3,48.56,9.59    c15.18,6.29,29.14,15.58,41.11,27.55c49.43,49.44,49.44,129.89,0,179.33c-23.95,23.95-55.8,37.14-89.67,37.14    C219.29,352.9,187.45,339.71,163.5,315.76z M410.25,383.18c-3.42,3.42-9.211,4.478-14.017-1.147L376.62,362.42l13.22-13.22    c0,0,20.355,20.644,20.41,20.7C413.786,373.486,413.808,379.622,410.25,383.18z"/>
	</g>
</g>















</svg>
